<?xml version="1.0" standalone="no"?>
<!DOCTYPE svg PUBLIC "-//W3C//DTD SVG 20010904//EN"
 "http://www.w3.org/TR/2001/REC-SVG-20010904/DTD/svg10.dtd">
<svg version="1.0" xmlns="http://www.w3.org/2000/svg"
 width="250px" height="136px" viewBox="0 0 475.000000 136.000000"
 preserveAspectRatio="xMidYMid meet">

<g transform="translate(0.000000,136.000000) scale(0.100000,-0.100000)"
fill="#6B7280" stroke="none">
<path d="M971 1226 c-65 -22 -140 -76 -162 -118 -16 -32 -19 -59 -19 -192 0
-160 6 -195 42 -233 16 -17 22 -40 26 -97 5 -82 -4 -150 -19 -141 -5 4 -9 33
-9 65 0 32 -5 62 -11 66 -8 4 -9 -13 -4 -59 5 -42 3 -67 -4 -71 -10 -7 -15 8
-24 64 -3 14 -5 4 -6 -22 -2 -95 -28 -39 -33 72 -1 26 -4 9 -7 -40 -6 -78 -7
-83 -19 -61 -8 14 -15 59 -15 111 -2 81 0 90 23 115 27 28 26 19 15 242 -7
123 -9 134 -32 157 -29 30 -89 41 -173 33 -122 -11 -223 -93 -259 -212 -41
-131 -21 -215 74 -311 69 -69 103 -90 440 -269 50 -26 96 -52 102 -58 7 -5 20
-7 28 -3 13 4 15 35 15 192 l0 187 -36 31 c-39 34 -59 96 -48 144 16 66 72
122 123 122 33 0 89 -57 102 -102 18 -68 3 -115 -54 -169 l-50 -49 13 -160 c7
-88 16 -160 20 -160 20 0 259 349 315 459 91 179 39 367 -126 452 -55 28 -165
35 -228 15z m216 -72 c125 -59 173 -218 108 -362 -15 -34 -32 -62 -37 -62 -6
0 -7 8 -3 18 20 53 37 141 32 179 -8 72 -53 151 -105 184 -39 25 -56 29 -112
29 -37 0 -89 -7 -116 -15 -57 -17 -67 -18 -60 -6 8 13 75 43 126 57 55 15 100
10 167 -22z m-543 -93 c3 -5 -17 -11 -44 -15 -104 -14 -200 -72 -231 -140 -41
-90 -17 -200 62 -289 56 -63 55 -71 -3 -31 -52 37 -88 87 -104 147 -18 67 -17
92 2 156 21 71 73 125 149 156 60 25 158 34 169 16z"/>
<path d="M1620 799 l0 -192 109 5 c100 4 112 7 145 32 43 33 62 66 71 127 14
92 -39 188 -113 209 -20 5 -76 10 -124 10 l-88 0 0 -191z m199 106 c65 -33 67
-169 4 -211 -15 -9 -48 -17 -77 -18 l-51 -1 -3 123 -3 122 51 0 c28 0 64 -7
79 -15z"/>
<path d="M2800 800 l0 -190 103 0 c162 0 207 22 207 101 0 42 -33 76 -82 86
-34 7 -29 18 11 26 69 14 80 109 18 147 -27 17 -51 20 -144 20 l-113 0 0 -190z
m208 108 c17 -17 15 -38 -5 -60 -12 -13 -31 -18 -75 -18 l-58 0 0 45 0 45 63
0 c36 0 68 -5 75 -12z m-12 -134 c12 -3 26 -16 32 -29 9 -19 7 -28 -7 -47 -16
-19 -28 -23 -83 -23 l-63 0 -3 39 c-5 59 1 66 55 66 26 0 58 -3 69 -6z"/>
<path d="M3513 942 c-19 -9 -33 -23 -33 -33 0 -11 -9 -19 -22 -21 -34 -5 -38
-55 -6 -60 22 -3 23 -8 28 -96 6 -107 16 -122 83 -122 65 0 94 28 68 68 -7 11
-12 12 -29 1 -36 -22 -52 3 -52 81 l0 68 43 3 c86 8 85 9 89 -92 3 -81 6 -93
27 -110 47 -38 150 -16 134 29 -11 30 -14 32 -33 22 -38 -21 -50 -3 -50 76 l0
74 34 0 c26 0 36 5 41 20 9 29 -2 40 -41 40 -32 0 -34 2 -34 35 l0 35 -40 -20
c-22 -11 -40 -27 -40 -34 0 -18 -24 -23 -82 -18 -45 4 -47 5 -50 37 l-3 32
-32 -15z"/>
<path d="M2328 934 c-16 -8 -28 -21 -28 -28 0 -8 -9 -16 -20 -19 -12 -3 -20
-14 -20 -27 0 -13 8 -24 20 -27 18 -5 20 -14 20 -80 0 -77 16 -125 45 -137 28
-10 90 -7 109 7 14 10 15 17 6 41 -8 23 -13 26 -25 16 -8 -6 -23 -9 -35 -5
-18 6 -20 15 -20 80 l0 74 38 3 c32 3 37 6 37 28 0 22 -5 25 -37 28 -35 3 -38
6 -38 33 0 33 -11 36 -52 13z"/>
<path d="M2035 876 c-49 -21 -59 -39 -37 -67 l19 -23 28 22 c32 26 77 29 95 6
18 -20 1 -35 -65 -59 -27 -10 -58 -25 -67 -33 -22 -19 -23 -75 -2 -96 21 -22
87 -21 106 2 31 36 30 40 -12 35 -36 -5 -40 -3 -40 15 0 22 44 52 76 52 13 0
15 -6 11 -27 -3 -17 2 -40 12 -58 14 -23 26 -31 54 -33 35 -3 37 -2 37 26 0
17 -6 32 -15 36 -11 4 -15 21 -15 66 0 75 -20 127 -55 140 -36 14 -94 12 -130
-4z"/>
<path d="M2549 875 c-80 -44 -90 -179 -18 -240 25 -20 41 -25 86 -25 86 0 141
43 96 75 -14 11 -22 10 -42 -6 -13 -10 -35 -19 -48 -19 -24 0 -73 40 -73 60 0
6 36 10 95 10 101 0 99 -1 95 55 -3 42 -16 63 -53 85 -37 23 -101 25 -138 5z
m87 -41 c22 -6 48 -47 37 -58 -10 -10 -111 -7 -118 4 -6 10 37 60 52 60 4 0
18 -3 29 -6z"/>
<path d="M3224 880 c-80 -32 -94 -185 -23 -244 43 -37 135 -37 176 -2 27 24
27 25 9 44 -18 20 -18 20 -49 1 -18 -10 -40 -19 -50 -19 -19 0 -67 42 -67 60
0 6 36 10 95 10 l95 0 0 35 c0 48 -24 91 -60 110 -32 16 -92 19 -126 5z m105
-66 c11 -15 18 -30 15 -35 -3 -5 -32 -9 -65 -9 -65 0 -76 13 -39 50 28 28 64
25 89 -6z"/>
<path d="M3934 880 c-55 -22 -90 -127 -64 -190 23 -55 64 -80 130 -80 48 0 64
5 87 24 27 24 27 25 9 44 -18 20 -18 20 -49 1 -18 -10 -40 -19 -50 -19 -19 0
-67 42 -67 60 0 6 36 10 95 10 l95 0 0 40 c0 48 -22 85 -61 106 -31 15 -92 18
-125 4z m94 -56 c12 -8 22 -24 22 -35 0 -18 -6 -20 -57 -17 -63 3 -73 14 -43
46 24 26 47 28 78 6z"/>
<path d="M4174 877 c-2 -7 -3 -69 -2 -138 l3 -124 37 -3 36 -3 4 103 c1 57 1
120 -1 141 -3 35 -5 37 -37 37 -19 0 -37 -6 -40 -13z"/>
<path d="M4296 869 c-32 -26 -37 -56 -5 -37 17 11 22 10 35 -6 8 -11 12 -28 8
-38 -4 -15 0 -18 26 -18 24 0 33 6 41 26 27 71 -44 121 -105 73z"/>
</g>
</svg>
