<svg xmlns="http://www.w3.org/2000/svg" xmlns:xlink="http://www.w3.org/1999/xlink" width="500" zoomAndPan="magnify" viewBox="0 0 375 374.999991" height="500" preserveAspectRatio="xMidYMid meet" version="1.0"><defs><clipPath id="d5188a2272"><path d="M 196 120 L 345 120 L 345 337.515625 L 196 337.515625 Z M 196 120 " clip-rule="nonzero"/></clipPath><clipPath id="97b1925875"><path d="M 37.5 75 L 105 75 L 105 309 L 37.5 309 Z M 37.5 75 " clip-rule="nonzero"/></clipPath><clipPath id="c9d58bb881"><path d="M 123 30.015625 L 279 30.015625 L 279 61 L 123 61 Z M 123 30.015625 " clip-rule="nonzero"/></clipPath></defs><g clip-path="url(#d5188a2272)"><path fill="#54afe6" d="M 199.039062 337.425781 C 197.835938 337.425781 196.832031 336.484375 196.769531 335.269531 C 196.710938 334.015625 197.671875 332.949219 198.925781 332.882812 C 278.304688 328.855469 340.484375 263.394531 340.484375 183.863281 C 340.484375 162.96875 336.230469 142.75 327.839844 123.761719 C 327.332031 122.617188 327.855469 121.273438 329 120.765625 C 330.148438 120.261719 331.492188 120.777344 331.996094 121.925781 C 340.640625 141.496094 345.027344 162.335938 345.027344 183.863281 C 345.027344 223.496094 329.929688 261.152344 302.515625 289.902344 C 275.199219 318.546875 238.492188 335.425781 199.15625 337.425781 C 199.113281 337.425781 199.078125 337.425781 199.039062 337.425781 " fill-opacity="1" fill-rule="nonzero"/></g><g clip-path="url(#97b1925875)"><path fill="#2c3587" d="M 102.210938 308.613281 C 101.746094 308.613281 101.28125 308.472656 100.875 308.179688 C 81.679688 294.179688 65.746094 275.679688 54.800781 254.667969 C 43.488281 232.949219 37.507812 208.464844 37.507812 183.863281 C 37.507812 143.304688 53.222656 105.011719 81.753906 76.035156 C 82.632812 75.144531 84.074219 75.132812 84.964844 76.011719 C 85.859375 76.894531 85.871094 78.332031 84.992188 79.222656 C 57.300781 107.34375 42.050781 144.503906 42.050781 183.863281 C 42.050781 231.328125 65.042969 276.429688 103.550781 304.507812 C 104.566406 305.25 104.789062 306.667969 104.050781 307.679688 C 103.605469 308.292969 102.914062 308.613281 102.210938 308.613281 " fill-opacity="1" fill-rule="nonzero"/></g><g clip-path="url(#c9d58bb881)"><path fill="#2c3587" d="M 276.3125 60.835938 C 275.875 60.835938 275.429688 60.707031 275.035156 60.4375 C 250.261719 43.566406 221.292969 34.648438 191.269531 34.648438 C 168.644531 34.648438 146.898438 39.605469 126.636719 49.386719 C 125.507812 49.929688 124.148438 49.453125 123.601562 48.328125 C 123.058594 47.195312 123.53125 45.835938 124.660156 45.292969 C 145.542969 35.214844 167.953125 30.105469 191.269531 30.105469 C 222.207031 30.105469 252.058594 39.296875 277.597656 56.683594 C 278.632812 57.390625 278.902344 58.804688 278.195312 59.839844 C 277.753906 60.484375 277.042969 60.835938 276.3125 60.835938 " fill-opacity="1" fill-rule="nonzero"/></g><path fill="#286291" d="M 273.761719 299.910156 C 273.058594 299.910156 272.367188 299.585938 271.921875 298.972656 C 271.1875 297.960938 271.410156 296.539062 272.425781 295.800781 C 291.34375 282.046875 306.589844 263.628906 316.507812 242.542969 C 317.042969 241.40625 318.394531 240.917969 319.53125 241.453125 C 320.664062 241.988281 321.152344 243.339844 320.621094 244.472656 C 310.375 266.253906 294.632812 285.269531 275.09375 299.476562 C 274.695312 299.769531 274.226562 299.910156 273.761719 299.910156 " fill-opacity="1" fill-rule="nonzero"/><path fill="#f1ad53" d="M 191.269531 326.71875 C 160.496094 326.71875 131.164062 317.046875 106.441406 298.742188 C 94.550781 289.941406 84.125 279.398438 75.457031 267.414062 C 66.675781 255.273438 59.894531 241.929688 55.304688 227.746094 C 54.921875 226.550781 55.574219 225.273438 56.769531 224.886719 C 57.960938 224.5 59.242188 225.15625 59.628906 226.347656 C 78.171875 283.664062 131.074219 322.175781 191.269531 322.175781 C 203.578125 322.175781 215.792969 320.550781 227.574219 317.34375 C 228.785156 317.011719 230.03125 317.726562 230.363281 318.9375 C 230.695312 320.148438 229.976562 321.394531 228.769531 321.726562 C 216.597656 325.039062 203.984375 326.71875 191.269531 326.71875 " fill-opacity="1" fill-rule="nonzero"/><path fill="#f1ad53" d="M 331.824219 183.246094 C 330.589844 183.246094 329.574219 182.253906 329.550781 181.019531 C 328.035156 106.324219 266.003906 45.554688 191.269531 45.554688 C 146.386719 45.554688 104.09375 67.542969 78.136719 104.371094 C 77.414062 105.402344 76 105.644531 74.972656 104.925781 C 73.945312 104.203125 73.699219 102.78125 74.425781 101.757812 C 87.363281 83.394531 104.667969 68.132812 124.457031 57.613281 C 144.90625 46.753906 168.007812 41.007812 191.269531 41.007812 C 228.855469 41.007812 264.367188 55.542969 291.261719 81.933594 C 318.121094 108.289062 333.335938 143.445312 334.09375 180.925781 C 334.121094 182.179688 333.125 183.21875 331.871094 183.246094 C 331.851562 183.246094 331.835938 183.246094 331.824219 183.246094 " fill-opacity="1" fill-rule="nonzero"/><path fill="#f1ad53" d="M 154.53125 310.515625 C 154.316406 310.515625 154.101562 310.488281 153.886719 310.421875 C 127.15625 302.515625 103.089844 285.851562 86.125 263.503906 C 68.585938 240.410156 59.316406 212.867188 59.316406 183.863281 C 59.316406 135.414062 85.863281 90.929688 128.59375 67.769531 C 129.695312 67.171875 131.074219 67.582031 131.675781 68.683594 C 132.273438 69.789062 131.863281 71.164062 130.757812 71.761719 C 89.492188 94.128906 63.859375 137.082031 63.859375 183.863281 C 63.859375 239.910156 101.410156 290.160156 155.175781 306.070312 C 156.378906 306.421875 157.066406 307.6875 156.707031 308.890625 C 156.417969 309.878906 155.511719 310.515625 154.53125 310.515625 " fill-opacity="1" fill-rule="nonzero"/><path fill="#544f9f" d="M 191.269531 315.816406 C 190.792969 315.816406 190.316406 315.8125 189.84375 315.808594 C 188.585938 315.792969 187.582031 314.765625 187.59375 313.511719 C 187.609375 312.265625 188.625 311.265625 189.867188 311.265625 C 189.875 311.265625 189.882812 311.265625 189.890625 311.265625 C 190.347656 311.269531 190.808594 311.273438 191.269531 311.273438 C 261.523438 311.273438 318.675781 254.121094 318.675781 183.863281 C 318.675781 113.613281 261.523438 56.457031 191.269531 56.457031 C 190.226562 56.457031 189.175781 56.46875 188.140625 56.492188 C 186.882812 56.515625 185.84375 55.53125 185.8125 54.277344 C 185.78125 53.023438 186.777344 51.980469 188.027344 51.953125 C 189.101562 51.925781 190.191406 51.910156 191.269531 51.910156 C 264.027344 51.910156 323.21875 111.105469 323.21875 183.863281 C 323.21875 256.621094 264.027344 315.816406 191.269531 315.816406 " fill-opacity="1" fill-rule="nonzero"/><path fill="#f0401e" d="M 191.269531 304.914062 C 124.523438 304.914062 70.21875 250.613281 70.21875 183.863281 C 70.21875 117.117188 124.523438 62.816406 191.269531 62.816406 C 200.480469 62.816406 209.664062 63.863281 218.570312 65.921875 C 219.789062 66.203125 220.550781 67.425781 220.269531 68.644531 C 219.988281 69.867188 218.765625 70.628906 217.542969 70.347656 C 208.972656 68.363281 200.136719 67.359375 191.269531 67.359375 C 127.027344 67.359375 74.761719 119.621094 74.761719 183.863281 C 74.761719 248.105469 127.027344 300.371094 191.269531 300.371094 C 203.511719 300.371094 215.578125 298.46875 227.132812 294.722656 C 228.324219 294.335938 229.609375 294.988281 229.996094 296.183594 C 230.382812 297.375 229.730469 298.65625 228.535156 299.042969 C 216.53125 302.9375 203.992188 304.914062 191.269531 304.914062 " fill-opacity="1" fill-rule="nonzero"/><path fill="#544f9f" d="M 271.121094 273.992188 C 270.503906 273.992188 269.886719 273.742188 269.4375 273.246094 C 268.597656 272.320312 268.664062 270.886719 269.59375 270.039062 C 293.855469 247.964844 307.773438 216.554688 307.773438 183.863281 C 307.773438 145.542969 288.847656 109.636719 257.15625 87.824219 C 256.121094 87.113281 255.859375 85.699219 256.570312 84.667969 C 257.28125 83.632812 258.699219 83.375 259.734375 84.082031 C 292.660156 106.746094 312.316406 144.046875 312.316406 183.863281 C 312.316406 201.1875 308.714844 217.929688 301.617188 233.617188 C 294.757812 248.769531 285.007812 262.15625 272.648438 273.402344 C 272.214844 273.792969 271.667969 273.992188 271.121094 273.992188 " fill-opacity="1" fill-rule="nonzero"/><path fill="#f0401e" d="M 191.269531 294.007812 C 153.785156 294.007812 119.199219 275.15625 98.75 243.574219 C 98.066406 242.519531 98.367188 241.117188 99.421875 240.433594 C 100.472656 239.753906 101.878906 240.050781 102.5625 241.105469 C 122.171875 271.390625 155.332031 289.464844 191.269531 289.464844 C 249.496094 289.464844 296.867188 242.09375 296.867188 183.863281 C 296.867188 179.230469 296.566406 174.566406 295.964844 170 C 295.800781 168.757812 296.675781 167.617188 297.917969 167.453125 C 299.160156 167.285156 300.300781 168.164062 300.464844 169.40625 C 301.09375 174.167969 301.410156 179.03125 301.410156 183.863281 C 301.410156 244.597656 252.003906 294.007812 191.269531 294.007812 " fill-opacity="1" fill-rule="nonzero"/><path fill="#f1ad53" d="M 83.511719 191.261719 C 82.308594 191.261719 81.304688 190.316406 81.246094 189.097656 C 81.164062 187.363281 81.125 185.601562 81.125 183.863281 C 81.125 123.128906 130.535156 73.722656 191.269531 73.722656 C 234.917969 73.722656 274.511719 99.59375 292.136719 139.628906 C 292.640625 140.777344 292.125 142.121094 290.976562 142.625 C 289.824219 143.128906 288.484375 142.609375 287.980469 141.460938 C 271.078125 103.070312 233.117188 78.261719 191.269531 78.261719 C 133.039062 78.261719 85.667969 125.632812 85.667969 183.863281 C 85.667969 185.535156 85.707031 187.222656 85.785156 188.882812 C 85.84375 190.136719 84.875 191.199219 83.621094 191.257812 C 83.585938 191.257812 83.550781 191.261719 83.511719 191.261719 " fill-opacity="1" fill-rule="nonzero"/><path fill="#5db3e7" d="M 191.269531 283.105469 C 136.546875 283.105469 92.027344 238.585938 92.027344 183.863281 C 92.027344 167.984375 95.683594 152.804688 102.890625 138.738281 C 103.464844 137.625 104.832031 137.183594 105.949219 137.753906 C 107.066406 138.328125 107.507812 139.695312 106.933594 140.816406 C 100.058594 154.230469 96.570312 168.714844 96.570312 183.863281 C 96.570312 236.078125 139.050781 278.558594 191.269531 278.558594 C 219.671875 278.558594 246.347656 265.925781 264.449219 243.898438 C 265.246094 242.929688 266.679688 242.789062 267.648438 243.585938 C 268.617188 244.382812 268.757812 245.8125 267.960938 246.78125 C 248.992188 269.867188 221.039062 283.105469 191.269531 283.105469 " fill-opacity="1" fill-rule="nonzero"/><path fill="#54afe6" d="M 283.5 216.101562 C 283.265625 216.101562 283.027344 216.066406 282.796875 215.988281 C 281.601562 215.601562 280.949219 214.320312 281.339844 213.125 C 284.40625 203.703125 285.964844 193.859375 285.964844 183.863281 C 285.964844 131.648438 243.484375 89.167969 191.269531 89.167969 C 175.882812 89.167969 160.601562 92.957031 147.070312 100.128906 C 145.960938 100.714844 144.585938 100.292969 143.996094 99.183594 C 143.410156 98.078125 143.832031 96.699219 144.941406 96.113281 C 159.125 88.597656 175.144531 84.625 191.269531 84.625 C 245.988281 84.625 290.507812 129.140625 290.507812 183.863281 C 290.507812 194.335938 288.878906 204.65625 285.660156 214.535156 C 285.347656 215.492188 284.460938 216.101562 283.5 216.101562 " fill-opacity="1" fill-rule="nonzero"/><path fill="#544f9f" d="M 191.269531 272.203125 C 184.402344 272.203125 177.558594 271.40625 170.929688 269.839844 C 169.707031 269.550781 168.953125 268.324219 169.242188 267.105469 C 169.53125 265.882812 170.757812 265.128906 171.976562 265.417969 C 178.261719 266.902344 184.753906 267.660156 191.269531 267.660156 C 237.472656 267.660156 275.0625 230.066406 275.0625 183.863281 C 275.0625 137.660156 237.472656 100.070312 191.269531 100.070312 C 145.066406 100.070312 107.472656 137.660156 107.472656 183.863281 C 107.472656 208.339844 118.179688 231.546875 136.84375 247.527344 C 137.796875 248.34375 137.90625 249.777344 137.089844 250.730469 C 136.273438 251.683594 134.839844 251.792969 133.890625 250.980469 C 114.214844 234.132812 102.929688 209.671875 102.929688 183.863281 C 102.929688 135.15625 142.558594 95.527344 191.269531 95.527344 C 239.976562 95.527344 279.605469 135.15625 279.605469 183.863281 C 279.605469 232.574219 239.976562 272.203125 191.269531 272.203125 " fill-opacity="1" fill-rule="nonzero"/><path fill="#f1ad53" d="M 191.269531 261.296875 C 175.570312 261.296875 160.445312 256.605469 147.523438 247.730469 C 134.910156 239.0625 125.214844 227.019531 119.484375 212.898438 C 119.011719 211.738281 119.570312 210.414062 120.734375 209.941406 C 121.894531 209.46875 123.21875 210.027344 123.691406 211.191406 C 134.925781 238.871094 161.453125 256.757812 191.269531 256.757812 C 231.457031 256.757812 264.160156 224.054688 264.160156 183.863281 C 264.160156 156.378906 248.910156 131.492188 224.371094 118.933594 C 223.25 118.359375 222.808594 116.992188 223.382812 115.871094 C 223.953125 114.757812 225.320312 114.316406 226.4375 114.890625 C 238.949219 121.292969 249.503906 130.984375 256.96875 142.917969 C 264.644531 155.191406 268.703125 169.351562 268.703125 183.863281 C 268.703125 226.558594 233.964844 261.296875 191.269531 261.296875 " fill-opacity="1" fill-rule="nonzero"/><path fill="#5db3e7" d="M 118.632812 166.789062 C 118.4375 166.789062 118.242188 166.761719 118.046875 166.710938 C 116.832031 166.386719 116.113281 165.144531 116.4375 163.929688 C 120.628906 148.195312 129.96875 133.863281 142.734375 123.566406 C 155.875 112.972656 171.722656 107.058594 188.554688 106.476562 C 189.8125 106.433594 190.863281 107.414062 190.90625 108.667969 C 190.949219 109.921875 189.96875 110.972656 188.714844 111.015625 C 156.9375 112.117188 129.023438 134.355469 120.824219 165.097656 C 120.554688 166.117188 119.636719 166.789062 118.632812 166.789062 " fill-opacity="1" fill-rule="nonzero"/><path fill="#f14d27" d="M 191.269531 250.390625 C 154.582031 250.390625 124.738281 220.550781 124.738281 183.863281 C 124.738281 147.179688 154.582031 117.335938 191.269531 117.335938 C 227.953125 117.335938 257.796875 147.179688 257.796875 183.863281 C 257.796875 188.972656 257.214844 194.066406 256.070312 199 C 255.785156 200.222656 254.5625 200.980469 253.339844 200.699219 C 252.117188 200.414062 251.359375 199.191406 251.640625 197.972656 C 252.714844 193.375 253.257812 188.628906 253.257812 183.863281 C 253.257812 149.683594 225.449219 121.875 191.269531 121.875 C 157.089844 121.875 129.28125 149.683594 129.28125 183.863281 C 129.28125 218.046875 157.089844 245.851562 191.269531 245.851562 C 202.5625 245.851562 213.609375 242.785156 223.226562 236.988281 C 224.300781 236.339844 225.699219 236.683594 226.347656 237.761719 C 226.996094 238.832031 226.648438 240.230469 225.574219 240.878906 C 215.25 247.101562 203.386719 250.390625 191.269531 250.390625 " fill-opacity="1" fill-rule="nonzero"/><path fill="#ff5757" d="M 206.386719 64.574219 C 206.390625 64.101562 205.589844 63.511719 204.980469 63.84375 C 204.519531 64.113281 204.300781 64.832031 204.433594 65.324219 C 204.566406 65.964844 204.992188 66.257812 205 66.945312 C 205.003906 67.164062 204.988281 67.410156 205 67.507812 C 205.761719 66.945312 206.292969 66.824219 207.320312 66.101562 C 208.761719 65.0625 207.929688 63.136719 206.515625 64.089844 C 206.484375 64.039062 206.472656 64 206.417969 63.949219 C 206.804688 63.648438 207.246094 63.570312 207.59375 63.679688 C 209.039062 64.378906 208.425781 65.910156 206.917969 66.65625 C 206.367188 66.9375 205.558594 67.289062 205.089844 67.703125 C 205.027344 67.660156 204.9375 67.605469 204.828125 67.53125 C 204.839844 67.308594 204.898438 67.078125 204.847656 66.855469 C 204.742188 66.179688 204.261719 65.65625 204.238281 64.953125 C 204.238281 64.417969 204.507812 63.8125 205.089844 63.597656 C 205.597656 63.421875 206.445312 63.820312 206.605469 64.417969 C 206.519531 64.460938 206.429688 64.542969 206.386719 64.574219 Z M 206.386719 64.574219 " fill-opacity="1" fill-rule="nonzero"/><path fill="#ff5757" d="M 204.371094 65.144531 C 203.769531 64.238281 202.953125 65.3125 202.992188 66.085938 C 202.855469 66.222656 202.832031 66.253906 202.667969 66.382812 C 202.515625 66.148438 201.96875 65.925781 201.726562 66.09375 C 201.445312 66.289062 201.472656 66.699219 201.585938 67.023438 C 201.773438 67.609375 202.3125 67.953125 202.808594 68.128906 C 203.152344 68.285156 203.671875 68.445312 204.007812 68.613281 C 204.054688 68.226562 204.707031 66.421875 204.695312 66.535156 C 204.683594 66.644531 204.5 67.382812 204.585938 67.519531 C 204.402344 67.769531 204.25 68.492188 204.222656 68.808594 C 204.113281 68.851562 204.113281 68.832031 204.058594 68.917969 C 203.757812 68.726562 203.105469 68.476562 202.777344 68.351562 C 202.269531 68.144531 201.832031 68.023438 201.460938 67.542969 C 201.179688 67.191406 201.03125 66.632812 201.25 66.210938 C 201.433594 65.878906 201.820312 65.859375 202.132812 65.890625 C 202.289062 65.886719 202.585938 66.007812 202.71875 66.027344 C 202.726562 65.832031 202.726562 65.71875 202.820312 65.328125 C 202.921875 65.019531 203.058594 64.820312 203.363281 64.660156 C 203.851562 64.492188 204.382812 64.507812 204.863281 65.40625 C 205.347656 66.308594 204.429688 65.023438 204.371094 65.144531 Z M 204.371094 65.144531 " fill-opacity="1" fill-rule="nonzero"/></svg>