<?xml version="1.0" encoding="UTF-8"?>
<svg version="1.1" viewBox="0 0 2048 669" width="250" height="166" xmlns="http://www.w3.org/2000/svg">
<path transform="translate(320,88)" d="m0 0 29 2 27 5 26 8 20 9 17 9 18 12 10 8 14 12 10 10 9 11 10 13 11 18 8 15 10 25 6 22 4 20 2 20v26l-2 20-5 24-7 22-6 15-8 16-8 14-11 15-9 11-11 12-7 7-11 9-10 8-17 11-18 10-20 8-18 6-17 4-27 4-23 1-22-2-27-5-21-6-16-6-23-11-24-16-10-8-10-9-19-19-12-16-12-19-10-19-8-21-6-21-5-31v-44l5-30 6-21 8-21 13-25 13-19 9-11 11-12 11-11 11-9 15-11 15-9 17-9 23-9 22-6 23-4z" fill="#6B7280"/>
<path transform="translate(284,171)" d="m0 0h69l19 2 22 6 16 8 10 8 8 10 5 11 3 14v21l-4 16-8 13-9 10-10 7-10 5-15 5-11 2h-6l6 8 13 15 9 11 12 14 9 11 12 14 9 11 13 15 9 11 1 3h-39l-5-3-11-14-14-17-18-22-13-16-8-10-12-14-8-10-6-3h-3l-1 78-1 22-1 1h-31l-1-1z" fill="#162032"/>
<path transform="translate(1617,280)" d="m0 0h11l11 2 13 5 9 7 8 9 8 15 4 15v23l-4 15-6 12-8 10-11 8-12 5-9 2h-14l-12-3-10-5-10-8-2-3-1 25-1 59h-20l-1-79v-109l1-1h20v15l14-11 10-5z" fill="#6B7280"/>
<path transform="translate(1290,210)" d="m0 0h27l25 2 16 4 13 7 9 9 6 12 2 7v25l-4 13-7 11-10 9-10 5-15 4 9 14 14 20 36 51v1l-24 1-5-4-22-32-14-20-15-22-6-7-3-1v20l-1 65-1 1h-20l-1-1v-193z" fill="#6B7280"/>
<path transform="translate(1186,280)" d="m0 0 16 2 13 5 9 7 5 4 1-14h19l2 1v120h-17l-4-1v-14l-13 10-11 5-11 3h-14l-14-4-11-6-9-8-9-14-5-13-2-12v-14l3-17 5-12 8-11 10-8 12-6 8-2z" fill="#6B7280"/>
<path transform="translate(622,89)" d="m0 0h29l1 461h-28l-1-1z" fill="#6B7280"/>
<path transform="translate(227,170)" d="m0 0h34v268h65v31h-99l-1-298z" fill="#162032"/>
<path transform="translate(1470,280)" d="m0 0h13l14 3 12 6 10 9 9 14 5 16 1 8v12l-94 1 1 9 4 11 6 8 9 7 7 3 5 1h12l10-3 9-6 8-9 3-6 5 1 11 6 2 2-1 5-8 10-8 8-10 6-15 5-5 1h-15l-15-4-12-6-10-9-7-9-5-12-3-10v-25l3-13 8-16 7-9 11-8 12-5z" fill="#6B7280"/>
<path transform="translate(986,280)" d="m0 0h13l10 3 9 5 7 8v2l3-1 4-5 11-7 9-4 6-1h10l12 3 11 8 6 9 4 11 1 6 1 67v20l-1 1-20-1-1-63-1-22-3-10-4-5-9-4h-9l-10 4-6 7-4 11-1 8-1 74-3 1h-11l-6-1-1-74-2-15-4-8-6-5-4-2h-10l-9 4-5 5-4 9-2 10-1 20-1 56h-20l-1-50v-70h21v10l8-6 9-6z" fill="#6B7280"/>
<path transform="translate(318,196)" d="m0 0h20l27 3 14 4 9 5 5 5 6 8 4 12v17l-4 11-4 6-7 7-12 6-13 4-16 2-15 1h-15z" fill="#6B7280"/>
<path transform="translate(1186,299)" d="m0 0h10l11 3 9 5 8 8 5 10 3 13v11l-4 15-4 8-8 9-10 6-8 2h-13l-11-4-8-6-6-7-5-10-3-10v-17l4-12 6-10 4-5 10-6z" fill="#162032"/>
<path transform="translate(1611,300)" d="m0 0h18l10 3 8 6 6 7 6 13 1 4v21l-4 12-6 10-8 7-11 5-5 1h-13l-11-4-9-7-7-10-5-15v-19l4-12 6-9 8-8 8-4z" fill="#162032"/>
<path transform="translate(811,284)" d="m0 0h19l1 57 1 22 3 12 4 7 9 5 4 1h12l10-3 5-5 4-7 1-5 1-84h20l1 1v81l-2 12-6 12-7 8-10 6-16 4h-15l-14-4-11-7-6-7-5-10-2-10-1-22z" fill="#6B7280"/>
<path transform="translate(716,210)" d="m0 0h17l3 1 1 97v77h53v19l-18 1h-41l-15-1-1-164v-29z" fill="#6B7280"/>
<path transform="translate(1312,231)" d="m0 0h22l14 3 10 6 6 8 2 8v17l-2 9-9 10-11 5-16 3-15 1-2-2v-67z" fill="#162032"/>
<path transform="translate(1469,300)" d="m0 0h15l11 4 10 9 7 14v3l-3 1h-68l-1-4 5-10 9-10 8-5z" fill="#162032"/>
<path transform="translate(1743,343)" d="m0 0h8l3 7 6-5 2-1h15l5 3 5 6 2 6v35l-1 1h-11l-1-33-1-5-4-1h-12l-4 4-1 5-1 30h-11l-1-1v-41l1-9z" fill="#6B7280"/>
<path transform="translate(1820,343)" d="m0 0h8l11 4 6 5 5 8v2h-9l-8-5-3-1h-11l-6 4-3 6 1 10 5 5 4 2h8l8-4 4-4 10-1 1 2-6 9-7 6-7 3-9 1-9-3-9-6-5-7-2-11 2-9 6-8 6-5z" fill="#6B7280"/>
<path transform="translate(1717,343)" d="m0 0h11v41l-1 10-2 1h-8z" fill="#6B7280"/>
<path transform="translate(1864,381)" d="m0 0h9l2 4-1 9-8 1-4-2v-10z" fill="#6B7280"/>
<path transform="translate(1721,325)" d="m0 0 7 1-1 11h-8l-2-1v-10z" fill="#6B7280"/>
</svg>
