<?xml version="1.0" standalone="no"?>
<!DOCTYPE svg PUBLIC "-//W3C//DTD SVG 20010904//EN"
 "http://www.w3.org/TR/2001/REC-SVG-20010904/DTD/svg10.dtd">
<svg version="1.0" xmlns="http://www.w3.org/2000/svg"
 width="406.000000pt" height="132.000000pt" viewBox="0 0 406.000000 132.000000"
 preserveAspectRatio="xMidYMid meet">

<g transform="translate(0.000000,132.000000) scale(0.100000,-0.100000)"
fill="#6B7280" stroke="none">
<path d="M511 1124 c-118 -32 -224 -121 -281 -238 -135 -275 35 -596 337 -639
150 -22 283 21 387 125 119 120 162 274 121 433 -40 154 -166 279 -320 319
-73 20 -172 19 -244 0z m7 -401 l2 -262 63 -3 c59 -3 62 -4 65 -30 l3 -28
-100 0 -101 0 0 296 0 295 33 -3 32 -3 3 -262z m246 246 c22 -6 52 -24 68 -39
24 -25 28 -36 28 -85 0 -49 -4 -60 -28 -85 -16 -15 -47 -34 -70 -41 l-42 -12
47 -56 c26 -31 67 -80 91 -108 l44 -53 -40 0 c-39 0 -43 3 -124 102 -46 56
-89 103 -95 106 -10 3 -13 -21 -13 -98 l0 -101 -32 3 -33 3 -3 238 -2 237 82
0 c46 0 101 -5 122 -11z"/>
<path d="M630 840 l0 -92 53 7 c57 8 86 20 104 44 20 25 15 68 -10 97 -20 23
-34 28 -85 32 l-62 4 0 -92z"/>
<path d="M2560 710 c0 -183 1 -190 20 -190 18 0 20 7 20 85 0 47 3 85 8 85 4
-1 32 -38 63 -83 36 -54 63 -83 77 -85 12 -2 22 -1 22 3 0 3 -25 41 -55 84
-30 43 -55 81 -55 85 0 3 7 6 16 6 8 0 29 13 45 29 21 22 29 39 29 66 0 72
-42 105 -135 105 l-55 0 0 -190z m131 134 c11 -10 19 -31 19 -50 0 -37 -23
-57 -77 -69 l-33 -7 0 78 0 77 36 -6 c20 -3 45 -14 55 -23z"/>
<path d="M2857 739 c-52 -40 -56 -150 -7 -194 30 -28 108 -31 148 -6 33 21 41
44 21 57 -7 4 -15 0 -20 -8 -15 -27 -65 -42 -98 -29 -30 13 -56 55 -45 73 4 6
40 9 93 7 l86 -4 -2 33 c-1 22 -11 44 -29 63 -23 24 -36 29 -75 29 -32 0 -55
-6 -72 -21z m123 -34 c13 -14 21 -27 18 -30 -3 -3 -39 -5 -79 -3 l-74 3 27 28
c35 35 76 36 108 2z"/>
<path d="M3100 575 c0 -158 2 -185 15 -185 12 0 15 16 15 80 0 44 3 80 8 80 4
0 16 -7 26 -15 11 -8 37 -15 59 -15 31 0 46 7 73 34 30 30 34 40 34 85 0 42
-5 56 -31 86 -27 31 -37 35 -79 35 -30 0 -52 -5 -60 -15 -7 -8 -16 -15 -21
-15 -5 0 -9 7 -9 15 0 8 -7 15 -15 15 -13 0 -15 -27 -15 -185z m165 130 c52
-51 18 -155 -50 -155 -35 0 -85 50 -85 85 0 31 24 81 42 88 32 13 70 6 93 -18z"/>
<path d="M3413 590 c0 -30 2 -43 4 -27 2 15 2 39 0 55 -2 15 -4 2 -4 -28z"/>
<path d="M3455 619 c-9 -28 -1 -79 12 -79 7 0 10 7 7 15 -10 26 5 65 25 65 21
0 31 -19 31 -56 0 -13 5 -24 10 -24 13 0 13 56 0 81 -13 24 -77 23 -85 -2z"/>
<path d="M3582 628 c-7 -7 -12 -25 -12 -40 0 -40 39 -58 75 -34 31 20 27 33
-5 16 -29 -16 -52 -5 -48 22 2 19 9 23 36 21 27 -1 31 1 21 13 -14 17 -51 18
-67 2z"/>
<path d="M3696 561 c-4 -7 -5 -15 -2 -18 9 -9 19 4 14 18 -4 11 -6 11 -12 0z"/>

</g>
</svg>
